HIERARCHY
ROOT ROOT
{
	OFFSET 0.000000 56.020000 -5.659234
	CHANNELS 6 Xposition Yposition Zposition Xrotation Yrotation Zrotation 
	JOINT C_spine0001_bind_JNT
	{
		OFFSET 0.000000 1.618999 0.000000
		CHANNELS 3 Xrotation Yrotation Zrotation
		JOINT C_spine0002_bind_JNT
		{
			OFFSET 0.000000 4.942001 0.000001
			CHANNELS 3 Xrotation Yrotation Zrotation
			JOINT C_spine0003_bind_JNT
			{
				OFFSET 0.000000 4.942001 -0.000000
				CHANNELS 3 Xrotation Yrotation Zrotation
				JOINT C_neck0001_bind_JNT
				{
					OFFSET 0.000000 17.026009 -0.000000
					CHANNELS 3 Xrotation Yrotation Zrotation
					JOINT C_neck0002_bind_JNT
					{
						OFFSET 0.000000 3.249985 0.000000
						CHANNELS 3 Xrotation Yrotation Zrotation
						JOINT C_head_bind_JNT
						{
							OFFSET 0.000000 5.278008 0.000000
							CHANNELS 3 Xrotation Yrotation Zrotation
							End Site
							{
								OFFSET 0.000000 0.000000 0.000000
							}
						}
					}
				}
				JOINT L_clavicle_bind_JNT
				{
					OFFSET 4.590000 12.067001 0.834000
					CHANNELS 3 Xrotation Yrotation Zrotation
					JOINT L_armUpper0001_bind_JNT
					{
						OFFSET 7.812635 0.512001 -3.452945
						CHANNELS 3 Xrotation Yrotation Zrotation
						JOINT L_armLower0001_bind_JNT
						{
							OFFSET 15.265892 -6.552116 -0.058157
							CHANNELS 3 Xrotation Yrotation Zrotation
							JOINT L_hand0001_bind_JNT
							{
								OFFSET 14.747667 -6.369995 5.049225
								CHANNELS 3 Xrotation Yrotation Zrotation
								End Site
								{
									OFFSET 0.000000 0.000000 0.000000
								}
							}
						}
					}
				}
				JOINT R_clavicle_bind_JNT
				{
					OFFSET -4.590000 12.067001 0.834000
					CHANNELS 3 Xrotation Yrotation Zrotation
					JOINT R_armUpper0001_bind_JNT
					{
						OFFSET -7.812635 0.512001 -3.452945
						CHANNELS 3 Xrotation Yrotation Zrotation
						JOINT R_armLower0001_bind_JNT
						{
							OFFSET -15.265890 -6.552124 -0.058160
							CHANNELS 3 Xrotation Yrotation Zrotation
							JOINT R_hand0001_bind_JNT
							{
								OFFSET -14.746784 -6.369629 5.048937
								CHANNELS 3 Xrotation Yrotation Zrotation
								End Site
								{
									OFFSET 0.000000 0.000000 0.000000
								}
							}
						}
					}
				}
			}
		}
	}
	JOINT C_pelvis0001_bind_JNT
	{
		OFFSET -0.000000 0.000000 0.000000
		CHANNELS 3 Xrotation Yrotation Zrotation
		JOINT L_legUpper0001_bind_JNT
		{
			OFFSET 6.599999 -6.027000 0.539000
			CHANNELS 3 Xrotation Yrotation Zrotation
			JOINT L_legLower0001_bind_JNT
			{
				OFFSET -0.140713 -19.187443 0.040261
				CHANNELS 3 Xrotation Yrotation Zrotation
				JOINT L_foot0001_bind_JNT
				{
					OFFSET -0.132215 -18.028637 -1.138370
					CHANNELS 3 Xrotation Yrotation Zrotation
					JOINT L_foot0002_bind_JNT
					{
						OFFSET 0.007014 -4.693133 9.886524
						CHANNELS 3 Xrotation Yrotation Zrotation
						End Site
						{
							OFFSET 0.000000 0.000000 0.000000
						}
					}
				}
			}
		}
		JOINT R_legUpper0001_bind_JNT
		{
			OFFSET -6.599999 -6.027000 0.539000
			CHANNELS 3 Xrotation Yrotation Zrotation
			JOINT R_legLower0001_bind_JNT
			{
				OFFSET 0.140710 -19.187164 0.040550
				CHANNELS 3 Xrotation Yrotation Zrotation
				JOINT R_foot0001_bind_JNT
				{
					OFFSET 0.132215 -18.028633 -1.138362
					CHANNELS 3 Xrotation Yrotation Zrotation
					JOINT R_foot0002_bind_JNT
					{
						OFFSET -0.007014 -4.693128 9.886505
						CHANNELS 3 Xrotation Yrotation Zrotation
						End Site
						{
							OFFSET 0.000000 0.000000 0.000000
						}
					}
				}
			}
		}
	}
}
MOTION
Frames: 10
Frame Time: 0.033333
0.000000 43.777935 0.000000 0.058314 -7.782771 -0.019135 13.022686 7.286047 -3.974246 -1.510335 0.078086 -0.649209 7.293393 0.279509 -0.304667 19.280397 -0.443737 -0.667358 0.168021 -0.711955 -0.292994 -2.543242 -0.394235 -2.095222 8.660134 6.659586 12.948798 -20.970749 2.074970 -65.114067 -35.230389 24.894062 -6.040228 -13.688890 -18.745989 -24.886118 10.778479 -8.154133 -9.128922 -26.648457 -1.442751 61.894405 -23.479826 -19.834459 8.577767 -9.410632 14.464762 27.014519 11.050030 7.133008 -2.621454 -48.522278 2.853373 6.042483 53.340809 -2.134111 -1.379927 -12.035096 -5.112978 0.351499 -4.558997 -1.287280 -0.189483 -33.747162 -4.460984 -1.901851 58.360874 2.020546 -1.325266 -28.518909 3.823616 -0.111598 -6.168443 0.496319 -0.114651 
-0.036878 43.568722 -0.200378 0.020325 -7.271135 -0.028425 13.637568 6.246467 -3.812037 -2.204999 0.014654 -0.346003 7.616019 0.031799 -0.119228 18.871469 -0.992756 -1.179235 -0.148135 -0.157645 -0.314680 -3.158884 -0.740873 -1.793124 8.243395 7.752270 10.935893 -19.863605 2.020879 -63.193913 -33.734089 21.814615 -8.447199 -15.037639 -17.842230 -23.517553 10.944230 -8.844369 -8.513364 -27.587931 0.804577 60.696232 -25.490540 -20.901131 8.365803 -9.510727 15.707657 27.586319 11.995005 6.669534 -2.582268 -49.883026 2.652920 4.605771 54.473454 -0.426893 -0.863246 -12.497193 -5.866478 0.902703 -3.870098 -0.715165 -0.278061 -36.310471 -4.184906 -1.980804 61.182980 1.339720 -0.846758 -30.072987 4.171477 -0.800305 -6.072094 0.401127 -0.105041 
-0.149610 43.380367 -0.367236 0.032616 -7.480970 -0.024152 13.572010 6.503074 -4.009379 -2.033495 -0.023599 -0.296435 7.725073 0.003627 -0.033513 18.873518 -0.828225 -0.989269 0.142837 -0.107906 -0.334630 -2.550712 -1.027071 -1.618250 7.907914 7.662277 10.261306 -19.736078 2.687685 -62.512676 -35.443745 22.016012 -7.761541 -14.928218 -17.729656 -23.393492 10.530574 -8.851230 -8.047914 -28.186012 0.595284 60.134602 -26.577484 -21.572609 7.837004 -8.780705 15.241770 27.525078 11.599346 6.839949 -2.653848 -50.641029 2.407723 4.522875 55.875961 -0.586176 -0.938774 -12.703863 -6.510398 0.945296 -3.718385 -1.039387 -0.143567 -36.469349 -4.549072 -1.274502 62.961826 1.211379 -1.445547 -31.108816 3.704274 -0.819343 -6.249039 0.591111 -0.165310 
-0.176149 43.177464 -0.360354 0.037885 -7.482320 -0.038340 13.682830 6.508612 -4.057955 -1.920802 -0.082134 -0.192456 7.868663 0.013449 -0.024093 18.972616 -0.837979 -1.139302 0.018150 -0.165216 -0.139292 -2.618922 -0.522244 -1.966249 7.673563 7.766636 9.666051 -20.043547 2.382135 -61.910069 -36.273251 22.339008 -7.683096 -15.268542 -17.876020 -23.318741 10.146986 -8.680489 -7.764331 -28.166824 0.251032 59.404964 -27.209934 -22.095547 7.984463 -8.543217 15.406633 27.424332 11.691979 6.826317 -2.952955 -51.755817 2.052550 5.069657 56.451118 -0.891616 -1.010005 -12.190889 -6.610792 0.975224 -3.723710 -0.819914 -0.114158 -37.042202 -4.521798 -1.225904 64.440346 1.080409 -1.118571 -31.902391 4.013144 -0.769082 -6.241226 0.635197 -0.356400 
-0.175889 42.963711 -0.361591 0.026429 -7.498439 -0.024957 14.117428 6.450634 -3.986844 -2.080730 -0.009080 -0.256006 7.801215 0.086360 -0.022500 18.951307 -0.803943 -1.079274 0.102586 -0.111199 -0.257298 -2.202041 -0.564633 -2.090774 7.570300 7.633470 9.108351 -20.090239 2.256924 -61.312241 -37.041893 22.632835 -7.781406 -15.590424 -18.115501 -23.138462 9.949940 -8.814631 -7.563201 -28.361084 0.088933 58.965008 -28.054937 -21.940199 7.907468 -8.345813 15.180453 27.004030 12.048376 6.675274 -2.893392 -53.208855 1.911731 4.912678 57.962524 -0.948663 -1.305779 -12.626537 -6.712543 1.104276 -3.602202 -0.991318 -0.077033 -37.509003 -4.176214 -1.067193 65.401276 0.921715 -1.304230 -32.315773 3.902400 -0.603389 -6.820431 0.693606 -0.274729 
-0.305237 42.718727 -0.430524 0.028673 -7.427562 -0.021500 14.258521 6.374915 -4.025603 -2.028304 0.023051 -0.321005 7.904607 0.070220 -0.104198 19.035418 -0.563968 -1.012769 0.102669 -0.262960 -0.290715 -2.347056 -0.406558 -1.975321 7.288646 7.809631 8.699627 -20.117176 2.552685 -60.321590 -37.353985 22.499886 -7.857652 -14.814434 -18.201736 -22.918705 9.726526 -8.934890 -7.257185 -28.412188 -0.135490 58.226368 -28.434393 -21.619761 8.532845 -8.197270 15.108913 26.768482 12.118922 6.665331 -3.043459 -54.327847 1.535667 4.897009 59.463482 -1.167725 -1.327526 -12.865908 -6.544668 1.268075 -3.786021 -0.931482 -0.114452 -37.709435 -4.049033 -0.828194 66.477821 0.622045 -0.920479 -32.849121 4.255993 -0.660612 -7.143381 0.629102 -0.399010 
-0.419825 42.468010 -0.676581 0.024896 -7.442099 -0.025190 14.390540 6.286425 -3.884360 -1.904328 0.093553 -0.551502 8.034877 0.173349 -0.260039 18.893015 -0.426157 -1.021526 0.187964 -0.317666 -0.112499 -2.345358 -0.240129 -2.000347 6.523716 7.887717 8.787923 -20.132578 2.769675 -59.659977 -37.325420 22.622475 -7.461776 -14.708296 -18.422461 -22.793901 9.513788 -9.186130 -6.913265 -29.339174 -0.167225 57.536888 -28.505945 -21.725069 8.769418 -8.378705 15.196687 26.848068 12.146361 6.374387 -2.752299 -55.776596 1.287684 4.691198 60.664158 -1.326919 -1.374301 -12.777378 -6.515970 1.391157 -3.641383 -0.763953 -0.113015 -37.537540 -3.849237 -0.644964 67.545021 0.406249 -0.829241 -33.310177 4.573281 -0.891844 -7.981439 0.806654 -0.402024 
-0.590849 42.155613 -0.922003 0.025720 -7.458255 -0.028200 14.539240 6.292462 -3.855614 -1.887756 0.188868 -0.621509 8.142095 0.228845 -0.322929 18.924973 -0.429184 -0.987391 -0.045489 -0.077115 -0.217015 -2.278559 -0.047615 -2.103822 6.188463 7.910793 8.300981 -20.591345 3.230385 -58.295551 -36.765003 22.849056 -7.631492 -14.279749 -18.767925 -22.188545 9.085444 -9.455809 -6.579573 -29.475380 -0.230484 56.930008 -28.605923 -21.432039 9.208622 -8.623994 15.367819 26.564970 12.238843 6.363838 -2.479487 -57.089046 1.308011 4.566223 61.844318 -1.597829 -1.350302 -12.730038 -6.549345 1.523068 -3.521669 -0.701026 -0.079196 -37.527233 -3.484905 -0.509889 68.631432 0.345054 -0.182263 -33.995285 5.046743 -1.450914 -8.179086 0.666533 -0.492744 
-0.692630 41.886715 -1.198493 0.024709 -7.639436 -0.029584 14.689585 6.573745 -3.783179 -1.799965 0.219439 -0.675172 8.142451 0.299794 -0.475938 18.881933 -0.390102 -1.022240 0.059715 -0.197008 -0.290416 -2.576559 0.124550 -1.998138 5.675865 7.966289 7.952637 -20.866116 3.216566 -57.605701 -36.447483 22.653774 -7.180014 -14.577327 -18.927517 -21.511599 8.694072 -9.857983 -6.351340 -29.863840 -0.198651 56.242882 -28.559019 -21.032606 9.656713 -8.819738 15.801516 26.399307 12.398144 6.492052 -2.343102 -58.344715 0.863696 4.246013 62.526104 -1.695781 -1.621450 -12.519481 -6.474707 1.729798 -3.393275 -0.640921 -0.224408 -37.454563 -3.263840 -0.018143 69.358658 0.331029 0.235698 -34.430977 5.108428 -2.099851 -8.754037 0.869962 -0.534770 
-0.825584 41.682659 -1.498573 0.032636 -7.459487 -0.029433 14.894918 6.505457 -3.777482 -1.829632 0.319136 -0.854482 8.185778 0.372856 -0.467835 18.980305 -0.218532 -0.862152 0.055981 -0.173857 -0.353663 -2.407485 0.047204 -1.926569 5.347399 8.193242 7.774147 -21.390329 3.275354 -56.585651 -35.830208 22.632492 -7.751624 -14.982404 -19.196352 -21.124849 8.354824 -9.968019 -5.858461 -30.557188 -0.108991 55.069885 -28.118162 -20.829889 10.456113 -9.331630 16.674311 25.994738 12.636692 6.348638 -2.209122 -59.351532 0.718331 3.903477 63.031796 -1.884664 -1.599491 -12.527815 -6.520855 1.782808 -3.091511 -0.676722 -0.209862 -37.488800 -3.342885 0.631941 69.723404 0.423360 0.128801 -34.819954 5.262405 -2.597385 -8.736168 0.939871 -0.680703 
